<mxfile host="app.diagrams.net" modified="2024-04-15T07:23:33.378Z" agent="Mozilla/5.0 (X11; Linux x86_64; Chromium GOST) AppleWebKit/537.36 (KHTML, like Gecko) Chrome/120.0.0.0 Safari/537.36" version="24.2.3" etag="apih3vIFjWNAsLUL6dqM" type="github">
  <diagram name="Страница — 1" id="qjNhey5TZVK5cvlBtKui">
    <mxGraphModel>
      <root>
        <mxCell id="0" />
        <mxCell id="1" parent="0" />
      </root>
    </mxGraphModel>
  </diagram>
</mxfile>
